<?xml version="1.0" encoding="UTF-8" standalone="no"?>
<!-- Generator: Adobe Illustrator 21.0.0, SVG Export Plug-In . SVG Version: 6.00 Build 0)  -->

<svg
   xmlns:dc="http://purl.org/dc/elements/1.1/"
   xmlns:cc="http://creativecommons.org/ns#"
   xmlns:rdf="http://www.w3.org/1999/02/22-rdf-syntax-ns#"
   xmlns:svg="http://www.w3.org/2000/svg"
   xmlns="http://www.w3.org/2000/svg"
   xmlns:sodipodi="http://sodipodi.sourceforge.net/DTD/sodipodi-0.dtd"
   xmlns:inkscape="http://www.inkscape.org/namespaces/inkscape"
   version="1.1"
   id="Layer_1"
   x="0px"
   y="0px"
   viewBox="0 0 17 21"
   style="enable-background:new 0 0 17 21;"
   xml:space="preserve"
   sodipodi:docname="business.svg"
   inkscape:version="0.92.1 r15371"><metadata
   id="metadata11"><rdf:RDF><cc:Work
       rdf:about=""><dc:format>image/svg+xml</dc:format><dc:type
         rdf:resource="http://purl.org/dc/dcmitype/StillImage" /></cc:Work></rdf:RDF></metadata><defs
   id="defs9" /><sodipodi:namedview
   pagecolor="#ffffff"
   bordercolor="#666666"
   borderopacity="1"
   objecttolerance="10"
   gridtolerance="10"
   guidetolerance="10"
   inkscape:pageopacity="0"
   inkscape:pageshadow="2"
   inkscape:window-width="1680"
   inkscape:window-height="987"
   id="namedview7"
   showgrid="false"
   inkscape:zoom="11.238095"
   inkscape:cx="8.5"
   inkscape:cy="10.5"
   inkscape:window-x="-8"
   inkscape:window-y="-8"
   inkscape:window-maximized="1"
   inkscape:current-layer="Layer_1" />
<style
   type="text/css"
   id="style2">
  .st0{fill:#010101;}
</style>
<path
   class="st0"
   d="M16.4,15.1c-0.9-1.2-2-2-3.6-2.4l-1.5,5.2c0,0.5-0.4,0.9-0.9,0.9c-0.5,0-0.9-0.4-0.9-0.9v-4.2   c0-0.6-0.5-1.1-1.1-1.1c-0.6,0-1.1,0.5-1.1,1.1v4.2c0,0.5-0.4,0.9-0.9,0.9c-0.5,0-0.9-0.4-0.9-0.9l-1.5-5.2   c-1.6,0.4-2.7,1.2-3.6,2.4C0.2,15.6,0,16.6,0,17.1c0,0.1,0,0.3,0,0.4v0.9v0.9c0,1,0.8,1.7,1.7,1.7h13.5c1,0,1.7-0.8,1.7-1.7v-0.9   v-0.9c0-0.2,0-0.3,0-0.4C17,16.6,16.8,15.6,16.4,15.1z M3.9,4.6c0,2.6,1.6,6.3,4.6,6.3c2.9,0,4.6-3.8,4.6-6.3c0-2.6-2-4.6-4.6-4.6   C6,0,3.9,2.1,3.9,4.6z"
   id="path4" />
<path
   style="fill:#132576;fill-opacity:1;stroke-width:0.08898305"
   d="M 7.4755331,10.683331 C 6.1103508,10.195179 5.0465683,8.9994236 4.4441386,7.2758613 3.5880933,4.8267003 3.8752774,2.8620097 5.2994437,1.424528 6.171676,0.54414055 7.2892895,0.07118644 8.4974553,0.07118644 c 1.3118974,0 2.4003817,0.45465756 3.2789737,1.36962046 0.947211,0.9864215 1.310335,2.0094736 1.235183,3.4799558 -0.12362,2.4188475 -1.449515,4.7864837 -3.1450104,5.6160123 -0.6577549,0.321809 -1.7190316,0.386858 -2.3910685,0.146556 z"
   id="path4488"
   inkscape:connector-curvature="0" /><path
   style="fill:#132576;fill-opacity:1;stroke-width:0.08898305"
   d="M 1.1711122,20.85186 C 0.74992383,20.701711 0.33270173,20.321813 0.1691255,19.939511 -0.00198338,19.539603 0.0017548,16.935887 0.17461764,16.114125 0.37218618,15.174917 0.4517803,15.032942 1.1856787,14.310652 1.7013093,13.803178 2.057845,13.544084 2.6271186,13.263162 3.0431144,13.057878 3.5200666,12.878744 3.6870123,12.865086 l 0.3035378,-0.02483 0.7392606,2.536017 c 0.4065935,1.39481 0.7404994,2.610096 0.7420131,2.700636 0.00151,0.09054 0.1440189,0.305885 0.3166779,0.478544 0.2837989,0.283799 0.3491477,0.309201 0.68095,0.264697 0.2287705,-0.03068 0.4540875,-0.136222 0.5981509,-0.28017 l 0.2311262,-0.230941 0.044491,-2.483456 c 0.041964,-2.342382 0.055059,-2.497711 0.2305186,-2.734391 0.1023149,-0.138015 0.3459176,-0.307469 0.5413394,-0.376566 0.3224224,-0.114001 0.3875707,-0.109883 0.7038031,0.04449 0.6269808,0.30607 0.6596358,0.461366 0.6597942,3.137706 l 1.38e-4,2.344703 0.313925,0.313926 c 0.2837999,0.283799 0.3491489,0.309201 0.6809509,0.264697 0.632349,-0.08482 0.686386,-0.198098 1.550578,-3.250559 l 0.789211,-2.787614 0.268049,0.05064 c 0.147427,0.02785 0.639353,0.23336 1.09317,0.456688 1.025692,0.504753 2.029383,1.440156 2.404709,2.241102 0.231219,0.493417 0.241638,0.579917 0.269727,2.239561 0.02432,1.436928 0.0047,1.790506 -0.117004,2.109201 -0.175873,0.460517 -0.63009,0.881317 -1.088807,1.008704 -0.221747,0.06158 -2.682704,0.09218 -7.2323056,0.08993 -5.6239004,-0.0028 -6.9595995,-0.02602 -7.2399042,-0.125941 z"
   id="path4490"
   inkscape:connector-curvature="0" /></svg>