<svg xmlns="http://www.w3.org/2000/svg" viewBox="0 0 17 21"><path d="M16.4 15.1c-.9-1.2-2-2-3.6-2.4l-1.5 5.2c0 .5-.4.9-.9.9s-.9-.4-.9-.9v-4.2c0-.6-.5-1.1-1.1-1.1-.6 0-1.1.5-1.1 1.1v4.2c0 .5-.4.9-.9.9s-.9-.4-.9-.9L4 12.7c-1.6.4-2.7 1.2-3.6 2.4-.2.5-.4 1.5-.4 2v2.2c0 1 .8 1.7 1.7 1.7h13.5c1 0 1.7-.8 1.7-1.7v-2.2c.1-.5-.1-1.5-.5-2zM3.9 4.6c0 2.6 1.6 6.3 4.6 6.3 2.9 0 4.6-3.8 4.6-6.3 0-2.6-2-4.6-4.6-4.6C6 0 3.9 2.1 3.9 4.6z" fill="#010101"/><path d="M7.476 10.683C6.11 10.195 5.046 9 4.444 7.276c-.856-2.45-.569-4.414.855-5.851C6.172.545 7.29.07 8.497.07c1.312 0 2.4.455 3.28 1.37.947.986 1.31 2.01 1.235 3.48-.124 2.419-1.45 4.786-3.145 5.616-.658.322-1.72.387-2.391.146zM1.171 20.852c-.421-.15-.838-.53-1.002-.912-.171-.4-.167-3.004.006-3.826.197-.94.277-1.081 1.01-1.803.516-.508.873-.767 1.442-1.048.416-.205.893-.384 1.06-.398l.304-.025.739 2.536c.406 1.395.74 2.61.742 2.7.001.091.144.307.317.48.283.283.349.309.68.264.23-.03.455-.136.599-.28l.23-.231.045-2.483c.042-2.343.055-2.498.23-2.735.103-.138.347-.307.542-.376.323-.114.388-.11.704.044.627.306.66.461.66 3.138v2.345l.314.313c.284.284.349.31.68.265.633-.085.687-.198 1.551-3.25l.79-2.788.268.05c.147.028.639.234 1.093.457 1.025.505 2.03 1.44 2.404 2.241.232.494.242.58.27 2.24.024 1.437.005 1.79-.117 2.11-.176.46-.63.88-1.089 1.008-.221.061-2.682.092-7.232.09-5.624-.003-6.96-.026-7.24-.126z" fill="#132576"/></svg>