<svg xmlns="http://www.w3.org/2000/svg" version="1.1" id="Layer_1" x="0" y="0" viewBox="0 0 18.6 18.6" xml:space="preserve"><style type="text/css" id="style2"/><path d="M11.4 9.3l6.7-6.7c.6-.6.6-1.5 0-2.1s-1.5-.6-2.1 0L9.3 7.2 2.6.4C2-.1 1-.1.4.4-.1 1-.1 2 .4 2.6l6.7 6.7L.4 16c-.6.6-.6 1.5 0 2.1s1.5.6 2.1 0l6.7-6.7 6.7 6.7c.6.6 1.5.6 2.1 0s.6-1.5 0-2.1l-6.6-6.7z" id="path4"/><path d="M.906 18.395c-.726-.32-1.095-1.193-.796-1.882.063-.143 1.612-1.751 3.547-3.682 1.89-1.885 3.436-3.464 3.436-3.507 0-.044-1.51-1.587-3.357-3.43C1.504 3.67.328 2.44.23 2.23-.014 1.71.06.888.386.505.736.092 1.596-.05 2.167.21c.218.1 1.37 1.212 3.729 3.598l3.413 3.455 3.523-3.515C15.942.645 16.393.223 16.69.145c.67-.176 1.351.159 1.673.823a1.34 1.34 0 01-.117 1.378c-.107.153-1.7 1.783-3.54 3.622L11.361 9.31l3.363 3.422c1.85 1.882 3.43 3.527 3.513 3.657.095.15.15.387.155.66.007.539-.296 1.016-.815 1.278-.425.215-.803.223-1.223.026-.21-.098-1.45-1.286-3.704-3.545-1.864-1.868-3.424-3.397-3.467-3.397-.043 0-1.639 1.559-3.547 3.464-1.908 1.905-3.568 3.5-3.69 3.546-.299.112-.751.1-1.04-.027z" id="path4488" fill="gray" fill-opacity="1" stroke-width=".079"/><path d="M.788 18.28c-.662-.409-.936-1.24-.594-1.8.084-.139 1.68-1.794 3.546-3.68 1.866-1.884 3.393-3.449 3.393-3.476 0-.027-1.511-1.576-3.357-3.442C1.446 3.528.373 2.39.27 2.163-.049 1.461.17.595.74.304c.433-.221 1.132-.22 1.506.003.152.09 1.801 1.7 3.665 3.578L9.3 7.299l3.405-3.378C14.577 2.063 16.253.448 16.428.333c.625-.414 1.479-.124 1.858.632.451.9.467.877-3.533 4.91L11.33 9.323l2.477 2.522a401.325 401.325 0 013.473 3.572l.996 1.05.033.46c.027.377 0 .52-.152.79-.404.719-1.314.932-1.965.46-.188-.136-1.822-1.715-3.63-3.507-1.809-1.792-3.332-3.259-3.386-3.259-.054 0-1.308 1.199-2.785 2.663a386.783 386.783 0 01-3.574 3.507l-.887.845h-.453c-.302 0-.53-.05-.689-.147z" id="path4484" fill="#b3b3b3" fill-opacity="1" stroke-width=".079"/></svg>