<?xml version="1.0" encoding="UTF-8" standalone="no"?>
<!-- Generator: Adobe Illustrator 21.0.0, SVG Export Plug-In . SVG Version: 6.00 Build 0)  -->

<svg
   xmlns:dc="http://purl.org/dc/elements/1.1/"
   xmlns:cc="http://creativecommons.org/ns#"
   xmlns:rdf="http://www.w3.org/1999/02/22-rdf-syntax-ns#"
   xmlns:svg="http://www.w3.org/2000/svg"
   xmlns="http://www.w3.org/2000/svg"
   xmlns:sodipodi="http://sodipodi.sourceforge.net/DTD/sodipodi-0.dtd"
   xmlns:inkscape="http://www.inkscape.org/namespaces/inkscape"
   version="1.1"
   id="Layer_1"
   x="0px"
   y="0px"
   viewBox="0 0 18.6 18.6"
   style="enable-background:new 0 0 18.6 18.6;"
   xml:space="preserve"
   sodipodi:docname="close.svg"
   inkscape:version="0.92.1 r15371"><metadata
   id="metadata11"><rdf:RDF><cc:Work
       rdf:about=""><dc:format>image/svg+xml</dc:format><dc:type
         rdf:resource="http://purl.org/dc/dcmitype/StillImage" /></cc:Work></rdf:RDF></metadata><defs
   id="defs9" /><sodipodi:namedview
   pagecolor="#ffffff"
   bordercolor="#666666"
   borderopacity="1"
   objecttolerance="10"
   gridtolerance="10"
   guidetolerance="10"
   inkscape:pageopacity="0"
   inkscape:pageshadow="2"
   inkscape:window-width="1680"
   inkscape:window-height="987"
   id="namedview7"
   showgrid="false"
   inkscape:zoom="12.688172"
   inkscape:cx="-4.0588982"
   inkscape:cy="9.3000004"
   inkscape:window-x="-8"
   inkscape:window-y="-8"
   inkscape:window-maximized="1"
   inkscape:current-layer="Layer_1" />
<style
   type="text/css"
   id="style2">
  .st0{fill:#1d2e5b;}
</style>
<path
   d="M11.4,9.3l6.7-6.7c0.6-0.6,0.6-1.5,0-2.1s-1.5-0.6-2.1,0L9.3,7.2L2.6,0.4C2-0.1,1-0.1,0.4,0.4C-0.1,1-0.1,2,0.4,2.6l6.7,6.7   L0.4,16c-0.6,0.6-0.6,1.5,0,2.1s1.5,0.6,2.1,0l6.7-6.7l6.7,6.7c0.6,0.6,1.5,0.6,2.1,0s0.6-1.5,0-2.1L11.4,9.3z"
   id="path4" />
<path
   style="fill:#808080;fill-opacity:1;stroke-width:0.07881356"
   d="M 0.90635595,18.395047 C 0.17965982,18.074769 -0.18949091,17.201868 0.11037387,16.51285 0.17252899,16.370033 1.7219277,14.761634 3.6569841,12.831187 5.5469141,10.94576 7.0932205,9.3673621 7.0932205,9.3236364 c 0,-0.043726 -1.5109327,-1.586654 -3.357628,-3.4287298 C 1.5041205,3.6690169 0.328377,2.439941 0.23011987,2.2304238 -0.01420194,1.7094475 0.05977651,0.88812866 0.38552473,0.50509791 0.73692934,0.09189917 1.5955868,-0.05028418 2.1673729,0.21004532 2.3851625,0.3092031 3.537895,1.4216257 5.8959415,3.8082294 L 9.3092561,7.2628808 12.831535,3.7479209 c 3.109877,-3.10341527 3.561634,-3.52529931 3.858405,-3.60326723 0.670458,-0.17614363 1.351354,0.15904171 1.673061,0.82359859 0.218827,0.45203604 0.176048,0.95737024 -0.11659,1.37725684 -0.10694,0.1534404 -1.699974,1.7835387 -3.540076,3.6224408 l -3.345639,3.3434586 3.363508,3.4217525 c 1.849929,1.881963 3.430512,3.527323 3.512406,3.656354 0.0955,0.150465 0.151102,0.387109 0.155045,0.659852 0.0078,0.539682 -0.295834,1.016503 -0.814281,1.278727 -0.424968,0.214942 -0.803555,0.222994 -1.22356,0.02602 -0.209665,-0.09833 -1.450229,-1.285632 -3.703894,-3.544879 -1.863751,-1.868369 -3.4237303,-3.397033 -3.466619,-3.397033 -0.042889,0 -1.639018,1.558585 -3.5469538,3.463523 -1.9079358,1.904937 -3.5688149,3.500912 -3.6908423,3.54661 -0.2983716,0.111737 -0.7506539,0.09986 -1.03914895,-0.02729 z"
   id="path4488"
   inkscape:connector-curvature="0" /><path
   style="fill:#b3b3b3;fill-opacity:1;stroke-width:0.07881356"
   d="M 0.78813578,18.279973 C 0.12599163,17.87097 -0.14816491,17.040713 0.19375492,16.479946 0.27832223,16.341252 1.8741643,14.685507 3.7400705,12.800515 5.6059768,10.915521 7.1326274,9.3509955 7.1326274,9.3237907 7.1326274,9.2965858 5.621941,7.7478446 3.7755465,5.8821438 1.4457243,3.5279604 0.37305813,2.3899598 0.27007397,2.1631582 -0.04880229,1.4608982 0.16998725,0.59474337 0.73966575,0.30411508 1.1734243,0.082828 1.8719887,0.08395112 2.2461867,0.3065372 2.3979028,0.39678326 4.0470765,2.006969 5.9110172,3.8847276 L 9.3000004,7.2988342 12.704782,3.9210851 c 1.872631,-1.8577621 3.54814,-3.47261806 3.723353,-3.58856893 0.625357,-0.41384212 1.47846,-0.12334812 1.857957,0.63266164 0.451394,0.89924039 0.46734,0.87708569 -3.533459,4.90901829 l -3.422812,3.449448 2.477402,2.5220339 c 1.362572,1.387119 2.925351,2.994504 3.472843,3.571967 l 0.99544,1.049933 0.03329,0.460245 c 0.02728,0.37711 -2.36e-4,0.519847 -0.15216,0.790211 -0.403989,0.718802 -1.313334,0.931844 -1.964393,0.460219 -0.188565,-0.136596 -1.82237,-1.714838 -3.630676,-3.507203 -1.808306,-1.792366 -3.3319883,-3.258847 -3.3859599,-3.258847 -0.053972,0 -1.3071095,1.198369 -2.7847507,2.663043 -1.4776409,1.464673 -3.0857362,3.042915 -3.5735449,3.507203 L 1.9303874,18.42661 1.477482,18.426295 C 1.1745729,18.426137 0.94627038,18.377632 0.78813578,18.279953 Z"
   id="path4484"
   inkscape:connector-curvature="0" /></svg>