<svg xmlns="http://www.w3.org/2000/svg" version="1.1" id="heart" x="0" y="0" viewBox="0 0 20 17" xml:space="preserve"><style type="text/css" id="style2"/><path d="M18.5 1.5c-2-2-5.3-2-7.3 0L10 2.7 8.8 1.5c-2-2-5.3-2-7.3 0s-2 5.2 0 7.2l1.2 1.2L10 17l7.3-7.2 1.2-1.2c2-1.9 2-5.1 0-7.1zm-3.6 8.3L10 14.6 5.1 9.8 2.7 7.5C1.4 6.1 1.4 4 2.7 2.7c1.3-1.3 3.5-1.3 4.9 0L10 5.1l2.4-2.4c1.3-1.3 3.5-1.3 4.9 0 1.3 1.3 1.3 3.5 0 4.8l-2.4 2.3z" id="path4"/><path d="M5.875 12.936C3.647 10.764 1.62 8.764 1.371 8.492.45 7.486.011 6.244.078 4.827.14 3.46.654 2.37 1.685 1.407a5.05 5.05 0 015.64-.87c.733.347.987.54 1.937 1.465l.738.72.738-.72c.95-.925 1.204-1.118 1.937-1.465 2.312-1.097 5.067-.31 6.48 1.85.506.775.718 1.46.763 2.468.057 1.267-.22 2.196-.933 3.134-.354.464-8.873 8.896-8.989 8.896-.038 0-1.893-1.777-4.12-3.95zm7.103-1.182c4.677-4.57 4.755-4.65 4.968-5.106.251-.539.334-.927.336-1.582.005-1.474-.84-2.655-2.273-3.174-.577-.21-1.693-.227-2.263-.035-.71.238-1.025.48-2.395 1.834l-1.35 1.334-1.35-1.333C7.47 2.528 7.23 2.324 6.757 2.094c-1.39-.68-2.951-.462-4.025.562-.748.713-1.055 1.507-1 2.588.037.72.2 1.244.559 1.785.117.177 1.486 1.557 3.042 3.067a442.074 442.074 0 013.728 3.65c.495.498.911.906.925.906.014 0 1.36-1.304 2.99-2.898z" id="path4488" fill="#d40000" fill-opacity="1" stroke-width=".072"/></svg>