<svg xmlns="http://www.w3.org/2000/svg" version="1.1" id="heart" x="0" y="0" viewBox="0 0 13 11" xml:space="preserve"><style type="text/css" id="style2"/><path d="M12 1a3.32 3.32 0 00-4.7 0l-.8.7-.8-.7A3.32 3.32 0 001 1C-.3 2.3-.3 4.4 1 5.6l.8.8L6.5 11l4.7-4.6.8-.8c1.3-1.3 1.3-3.4 0-4.6z" id="path4"/><path d="M3.787 8.317C2.318 6.882.989 5.562.833 5.382.298 4.768.067 4.148.068 3.332c.001-.553.09-.943.325-1.426a3.326 3.326 0 012.2-1.77C2.983.044 3.734.046 4.12.14c.647.158 1.038.4 1.925 1.193.224.2.429.364.455.364.026 0 .23-.164.455-.364C7.842.54 8.233.298 8.88.14c.388-.095 1.137-.096 1.535-.002.693.162 1.472.675 1.897 1.247.438.59.62 1.142.62 1.871-.002.869-.257 1.531-.85 2.205-.396.45-5.518 5.464-5.582 5.464-.023 0-1.244-1.173-2.713-2.608z" id="path4488" fill="#d40000" fill-opacity="1" stroke-width=".047"/></svg>