<svg xmlns="http://www.w3.org/2000/svg" viewBox="0 0 18 34"><path d="M14.4 17L.4 2.6C-.1 2-.1 1 .4.4 1-.2 1.9-.2 2.5.4l15.1 15.5c.6.6.6 1.6 0 2.1L2.5 33.6c-.3.3-.7.4-1 .4s-.8-.1-1-.4c-.6-.6-.6-1.6 0-2.1L14.4 17z"/><path d="M.955 33.828c-.465-.187-.772-.72-.772-1.34 0-.527.155-.717 3-3.678 8.429-8.774 11.262-11.767 11.228-11.856-.02-.055-3.22-3.368-7.11-7.364C1.807 3.947.21 2.224.138 1.87-.101.677 1.008-.36 1.978.15c.666.348 15.776 15.985 15.908 16.462.074.267.059.58-.04.818-.208.506-15.454 16.243-15.899 16.412-.408.155-.582.153-.992-.013z" fill="#1d2e5b"/></svg>