<svg xmlns="http://www.w3.org/2000/svg" viewBox="0 0 18 34"><path d="M3.6 17l14-14.4c.6-.6.6-1.6 0-2.1-.6-.6-1.5-.6-2.1 0L.4 15.9c-.6.6-.6 1.6 0 2.1l15.1 15.5c.3.3.7.4 1 .4s.8-.1 1-.4c.6-.6.6-1.6 0-2.1L3.6 17z"/><path d="M16.013 33.797a1.818 1.818 0 01-.284-.142C15.509 33.51.2 17.768.103 17.585c-.077-.145-.094-.252-.094-.594 0-.365.014-.447.118-.659.098-.2 1.36-1.508 7.414-7.687C11.554 4.55 15.04 1 15.286.757c.528-.52.741-.64 1.19-.667.425-.027.733.09 1.077.41.34.314.46.582.462 1.034.004.652.542.054-7.355 8.173a2001.229 2001.229 0 00-7.062 7.28c-.009.025 10.92 11.38 13.463 13.987.747.766.846.933.847 1.424 0 .556-.283 1.075-.72 1.313-.19.104-.283.125-.62.135-.26.008-.45-.009-.555-.05z" fill="#1d2e5b"/></svg>