<?xml version="1.0" encoding="UTF-8" standalone="no"?>
<!-- Generator: Adobe Illustrator 21.0.0, SVG Export Plug-In . SVG Version: 6.00 Build 0)  -->

<svg
   xmlns:dc="http://purl.org/dc/elements/1.1/"
   xmlns:cc="http://creativecommons.org/ns#"
   xmlns:rdf="http://www.w3.org/1999/02/22-rdf-syntax-ns#"
   xmlns:svg="http://www.w3.org/2000/svg"
   xmlns="http://www.w3.org/2000/svg"
   xmlns:sodipodi="http://sodipodi.sourceforge.net/DTD/sodipodi-0.dtd"
   xmlns:inkscape="http://www.inkscape.org/namespaces/inkscape"
   version="1.1"
   id="Layer_1"
   x="0px"
   y="0px"
   viewBox="0 0 18 34"
   style="enable-background:new 0 0 18 34;"
   xml:space="preserve"
   sodipodi:docname="month-arrow-right.svg"
   inkscape:version="0.92.1 r15371"><metadata
   id="metadata4503"><rdf:RDF><cc:Work
       rdf:about=""><dc:format>image/svg+xml</dc:format><dc:type
         rdf:resource="http://purl.org/dc/dcmitype/StillImage" /></cc:Work></rdf:RDF></metadata><defs
   id="defs4501" /><sodipodi:namedview
   pagecolor="#ffffff"
   bordercolor="#666666"
   borderopacity="1"
   objecttolerance="10"
   gridtolerance="10"
   guidetolerance="10"
   inkscape:pageopacity="0"
   inkscape:pageshadow="2"
   inkscape:window-width="1680"
   inkscape:window-height="987"
   id="namedview4499"
   showgrid="false"
   inkscape:zoom="6.9411765"
   inkscape:cx="-15.419492"
   inkscape:cy="17"
   inkscape:window-x="-8"
   inkscape:window-y="-8"
   inkscape:window-maximized="1"
   inkscape:current-layer="Layer_1" />
<path
   d="M14.4,17L0.4,2.6C-0.1,2-0.1,1,0.4,0.4c0.6-0.6,1.5-0.6,2.1,0l15.1,15.5c0.6,0.6,0.6,1.6,0,2.1L2.5,33.6   c-0.3,0.3-0.7,0.4-1,0.4s-0.8-0.1-1-0.4c-0.6-0.6-0.6-1.6,0-2.1L14.4,17z"
   id="path4496" />
<path
   style="fill:#1d2e5b;fill-opacity:1;stroke-width:0.14406779"
   d="M 0.95482182,33.828332 C 0.48965845,33.640614 0.18305085,33.107844 0.18305085,32.487278 c 0,-0.526712 0.15487606,-0.716606 2.99949035,-3.677689 C 11.611506,20.035511 14.445378,17.043326 14.411258,16.953583 14.390618,16.899287 11.191173,13.585896 7.3013833,9.5904927 1.8071378,3.9470697 0.20863474,2.224106 0.13759982,1.8689313 -0.10091648,0.67634983 1.0084036,-0.36041729 1.9788868,0.1480702 2.6442747,0.4967022 17.753578,16.134089 17.88587,16.611017 c 0.07406,0.266982 0.05901,0.579804 -0.03935,0.818314 C 17.637945,17.935089 2.392455,33.671786 1.9469773,33.841157 1.5394601,33.996094 1.3649482,33.993838 0.95482182,33.828335 Z"
   id="path4505"
   inkscape:connector-curvature="0" /></svg>