<?xml version="1.0" encoding="UTF-8" standalone="no"?>
<!-- Generator: Adobe Illustrator 21.0.0, SVG Export Plug-In . SVG Version: 6.00 Build 0)  -->

<svg
   xmlns:dc="http://purl.org/dc/elements/1.1/"
   xmlns:cc="http://creativecommons.org/ns#"
   xmlns:rdf="http://www.w3.org/1999/02/22-rdf-syntax-ns#"
   xmlns:svg="http://www.w3.org/2000/svg"
   xmlns="http://www.w3.org/2000/svg"
   xmlns:sodipodi="http://sodipodi.sourceforge.net/DTD/sodipodi-0.dtd"
   xmlns:inkscape="http://www.inkscape.org/namespaces/inkscape"
   version="1.1"
   id="Layer_1"
   x="0px"
   y="0px"
   viewBox="0 0 14 14"
   style="enable-background:new 0 0 14 14;"
   xml:space="preserve"
   sodipodi:docname="qty-plus-mobile.svg"
   inkscape:version="0.92.1 r15371"><metadata
   id="metadata11"><rdf:RDF><cc:Work
       rdf:about=""><dc:format>image/svg+xml</dc:format><dc:type
         rdf:resource="http://purl.org/dc/dcmitype/StillImage" /></cc:Work></rdf:RDF></metadata><defs
   id="defs9" /><sodipodi:namedview
   pagecolor="#ffffff"
   bordercolor="#666666"
   borderopacity="1"
   objecttolerance="10"
   gridtolerance="10"
   guidetolerance="10"
   inkscape:pageopacity="0"
   inkscape:pageshadow="2"
   inkscape:window-width="1440"
   inkscape:window-height="838"
   id="namedview7"
   showgrid="false"
   inkscape:zoom="16.857143"
   inkscape:cx="7"
   inkscape:cy="7"
   inkscape:window-x="-8"
   inkscape:window-y="-8"
   inkscape:window-maximized="1"
   inkscape:current-layer="Layer_1" />
<style
   type="text/css"
   id="style2">
  .st0{fill:#606161;}
</style>
<polygon
   class="st0"
   points="8,6 8,0 6,0 6,6 0,6 0,8 6,8 6,14 8,14 8,8 14,8 14,6 "
   id="polygon4" />
<path
   style="fill:#1d2e5b;fill-opacity:0;stroke-width:0.05932203"
   d="M 6.0508475,10.968644 V 7.9728814 H 3.0254237 0 V 6.9940678 6.0152542 H 3.0254237 6.0508475 V 3.0194915 0.02372881 H 7 7.9491525 V 3.0194915 6.0152542 H 10.974576 14 V 6.9940678 7.9728814 H 10.974576 7.9491525 v 2.9957626 2.995763 H 7 6.0508475 Z"
   id="path4488"
   inkscape:connector-curvature="0" /><path
   style="fill:#1d2e5b;fill-opacity:1;stroke-width:0.05932203"
   d="M 6.0508475,10.968644 V 7.9728814 H 3.0254237 0 V 6.9940678 6.0152542 H 3.0254237 6.0508475 V 3.0194915 0.02372881 H 7 7.9491525 V 3.0194915 6.0152542 H 10.974576 14 V 6.9940678 7.9728814 H 10.974576 7.9491525 v 2.9957626 2.995763 H 7 6.0508475 Z"
   id="path4674"
   inkscape:connector-curvature="0" /></svg>