<svg xmlns="http://www.w3.org/2000/svg" viewBox="0 0 9 9"><path d="M5.2 4.5L8.9.8c.1-.2.1-.5 0-.7s-.5-.1-.7 0L4.5 3.8.8.1C.6 0 .3 0 .1.1S0 .6.1.8l3.7 3.7L.1 8.2c-.1.2-.1.5 0 .7.1.1.3.1.4.1s.2 0 .3-.1l3.7-3.7 3.7 3.7c.1.1.2.1.3.1s.2 0 .3-.1c.2-.2.2-.5.1-.7L5.2 4.5z"/><path d="M.24 8.952c-.097-.03-.13-.067-.162-.18-.05-.18-.05-.319 0-.454.022-.06.876-.944 1.897-1.967l1.857-1.859-1.878-1.878L.076.736.031.519C-.032.222.013.132.25.072.351.047.503.037.588.05c.144.024.297.167 2.034 1.9L4.5 3.824 6.378 1.95 8.256.076l.21-.045c.293-.063.402-.016.46.198.024.09.033.24.02.335-.023.167-.073.222-1.9 2.05L5.167 4.492 7.042 6.37c2.075 2.081 2.001 1.99 1.852 2.327-.099.222-.177.276-.395.276h-.185L6.407 7.067 4.5 5.16 2.599 7.061C.722 8.938.695 8.963.529 8.976a.944.944 0 01-.289-.024z" fill="#ccc"/><path d="M.206 8.925c-.082-.055-.13-.198-.13-.391 0-.242-.119-.11 2.134-2.373l1.66-1.669-1.9-1.901L.067.69.048.437.028.184.165.126A.964.964 0 01.475.07c.145 0 .2.023.335.14.09.077.956.93 1.926 1.897L4.5 3.863l1.897-1.895C8.27.1 8.297.073 8.475.048c.344-.05.449.044.449.4 0 .145-.023.215-.102.314-.056.07-.909.937-1.896 1.927L5.132 4.49l1.83 1.841C7.969 7.344 8.824 8.234 8.863 8.31c.152.292-.048.645-.365.645h-.165L6.416 7.038 4.5 5.122 2.679 6.937A118.49 118.49 0 01.731 8.853a.414.414 0 01-.305.1.632.632 0 01-.22-.028z" fill="#ccc"/></svg>