<svg xmlns="http://www.w3.org/2000/svg" viewBox="0 0 10 14"><path d="M0 14V.1l10 7z"/><path d="M.017 7.026V.148l4.88 3.413A605.96 605.96 0 019.85 7.046c.058.056-.971.793-4.844 3.465C2.3 12.378.072 13.905.052 13.905c-.02 0-.035-3.095-.035-6.879z" fill="none"/><path d="M.017 7.026V.148l4.88 3.413A605.96 605.96 0 019.85 7.046c.058.056-.971.793-4.844 3.465C2.3 12.378.072 13.905.052 13.905c-.02 0-.035-3.095-.035-6.879z" fill="none"/><path d="M.017 7.026V.148l4.88 3.413A605.96 605.96 0 019.85 7.046c.058.056-.971.793-4.844 3.465C2.3 12.378.072 13.905.052 13.905c-.02 0-.035-3.095-.035-6.879z" fill="none"/><path d="M.017 7.026V.148l4.88 3.413A605.96 605.96 0 019.85 7.046c.058.056-.971.793-4.844 3.465C2.3 12.378.072 13.905.052 13.905c-.02 0-.035-3.095-.035-6.879z" fill="#1d2e5b"/></svg>