<svg xmlns="http://www.w3.org/2000/svg" viewBox="0 0 10 14"><path d="M0 14V.1l10 7z"/><path d="M.017 7.026V.148l4.88 3.413A605.96 605.96 0 019.85 7.046c.058.056-.971.793-4.844 3.465C2.3 12.378.072 13.905.052 13.905c-.02 0-.035-3.095-.035-6.879z" fill="none"/><path d="M.017 7.026V.148l4.88 3.413A605.96 605.96 0 019.85 7.046c.058.056-.971.793-4.844 3.465C2.3 12.378.072 13.905.052 13.905c-.02 0-.035-3.095-.035-6.879z" fill="none"/><path d="M.017 7.026V.148l4.88 3.413A605.96 605.96 0 019.85 7.046c.058.056-.971.793-4.844 3.465C2.3 12.378.072 13.905.052 13.905c-.02 0-.035-3.095-.035-6.879z" fill="none"/><path d="M.017 7.026V.148l4.88 3.413A605.96 605.96 0 019.85 7.046c.058.056-.971.793-4.844 3.465C2.3 12.378.072 13.905.052 13.905c-.02 0-.035-3.095-.035-6.879z" fill="#1d2e5b"/><path d="M.047 7.02V.194L.21.307l2.06 1.438c2.727 1.901 7.466 5.227 7.524 5.28.085.077-.994.852-5.626 4.042-3.092 2.13-4.046 2.779-4.087 2.779-.02 0-.035-3.072-.035-6.826z" fill="#fff"/></svg>