<?xml version="1.0" encoding="UTF-8" standalone="no"?>
<!-- Generator: Adobe Illustrator 21.0.0, SVG Export Plug-In . SVG Version: 6.00 Build 0)  -->

<svg
   xmlns:dc="http://purl.org/dc/elements/1.1/"
   xmlns:cc="http://creativecommons.org/ns#"
   xmlns:rdf="http://www.w3.org/1999/02/22-rdf-syntax-ns#"
   xmlns:svg="http://www.w3.org/2000/svg"
   xmlns="http://www.w3.org/2000/svg"
   xmlns:sodipodi="http://sodipodi.sourceforge.net/DTD/sodipodi-0.dtd"
   xmlns:inkscape="http://www.inkscape.org/namespaces/inkscape"
   version="1.1"
   id="Layer_1"
   x="0px"
   y="0px"
   viewBox="0 0 10 14"
   style="enable-background:new 0 0 10 14;"
   xml:space="preserve"
   sodipodi:docname="triangle-arrow-button-white.svg"
   inkscape:version="0.92.1 r15371"><metadata
   id="metadata9"><rdf:RDF><cc:Work
       rdf:about=""><dc:format>image/svg+xml</dc:format><dc:type
         rdf:resource="http://purl.org/dc/dcmitype/StillImage" /><dc:title></dc:title></cc:Work></rdf:RDF></metadata><defs
   id="defs7" /><sodipodi:namedview
   pagecolor="#ffffff"
   bordercolor="#666666"
   borderopacity="1"
   objecttolerance="10"
   gridtolerance="10"
   guidetolerance="10"
   inkscape:pageopacity="0"
   inkscape:pageshadow="2"
   inkscape:window-width="1440"
   inkscape:window-height="838"
   id="namedview5"
   showgrid="false"
   inkscape:zoom="16.857143"
   inkscape:cx="-5.0550847"
   inkscape:cy="7.0000001"
   inkscape:window-x="-8"
   inkscape:window-y="-8"
   inkscape:window-maximized="1"
   inkscape:current-layer="Layer_1" />
<polygon
   points="0,14 0,0.1 10,7.1 "
   id="polygon2" />
<path
   style="fill:#1d2e5b;fill-opacity:0;stroke-width:0.05932203"
   d="M 0.01694915,7.0264689 V 0.14785353 L 4.8961864,3.5614141 c 2.6835805,1.8774584 4.9126677,3.4455669 4.9535275,3.4846856 0.058498,0.056006 -0.9711764,0.7925774 -4.8439013,3.4650553 -2.7050054,1.866661 -4.93409278,3.39393 -4.95352754,3.39393 -0.01943475,0 -0.03533591,-3.095377 -0.03533591,-6.8786161 z"
   id="path4486"
   inkscape:connector-curvature="0" /><path
   style="fill:#1d2e5b;fill-opacity:0;stroke-width:0.05932203"
   d="M 0.01694915,7.0264689 V 0.14785353 L 4.8961864,3.5614141 c 2.6835805,1.8774584 4.9126677,3.4455669 4.9535275,3.4846856 0.058498,0.056006 -0.9711764,0.7925774 -4.8439013,3.4650553 -2.7050054,1.866661 -4.93409278,3.39393 -4.95352754,3.39393 -0.01943475,0 -0.03533591,-3.095377 -0.03533591,-6.8786161 z"
   id="path4488"
   inkscape:connector-curvature="0" /><path
   style="fill:#1d2e5b;fill-opacity:0;stroke-width:0.05932203"
   d="M 0.01694915,7.0264689 V 0.14785353 L 4.8961864,3.5614141 c 2.6835805,1.8774584 4.9126677,3.4455669 4.9535275,3.4846856 0.058498,0.056006 -0.9711764,0.7925774 -4.8439013,3.4650553 -2.7050054,1.866661 -4.93409278,3.39393 -4.95352754,3.39393 -0.01943475,0 -0.03533591,-3.095377 -0.03533591,-6.8786161 z"
   id="path4490"
   inkscape:connector-curvature="0" /><path
   style="fill:#1d2e5b;fill-opacity:1;stroke-width:0.05932203"
   d="M 0.01694915,7.0264689 V 0.14785353 L 4.8961864,3.5614141 c 2.6835805,1.8774584 4.9126677,3.4455669 4.9535275,3.4846856 0.058498,0.056006 -0.9711764,0.7925774 -4.8439013,3.4650553 -2.7050054,1.866661 -4.93409278,3.39393 -4.95352754,3.39393 -0.01943475,0 -0.03533591,-3.095377 -0.03533591,-6.8786161 z"
   id="path4492"
   inkscape:connector-curvature="0" /><path
   style="fill:#ffffff;fill-opacity:1;stroke-width:0.05932203"
   d="M 0.04661021,7.0196895 V 0.19361588 l 0.1631356,0.11380806 C 0.29947038,0.37001838 1.2271187,1.016889 2.2711865,1.7449142 c 2.7269447,1.90149 7.4658571,5.2267654 7.5242905,5.2797631 0.084765,0.076881 -0.994633,0.8524998 -5.6259854,4.0426447 -3.0927315,2.13032 -4.04613863,2.778441 -4.0871777,2.778441 -0.01963703,0 -0.03570369,-3.071733 -0.03570369,-6.8260735 z"
   id="path4489"
   inkscape:connector-curvature="0" /></svg>